# xmcd CD database file
#
# Track frame offsets:
#	150
#	16735
#	35213
#	50199
#	65951
#	82181
#	95910
#	113204
#	128663
#	142995
#	159555
#	177541
#	194710
#	213135
#	229581
#	247232
#	264450
#	277060
#	292679
#	310050
#
# Disc length: 4378 seconds
#
# Revision: 0
# Processed by: cddbd v1.5.1PL2 Copyright (c) Steve Scherf et al.
# Submitted via: CDex 1.51
#
DISCID=39111814
DTITLE=Various Artist - Audio CD
DYEAR=66
DGENRE=Jazz
TTITLE0=The Pussycat Dolls feat Busta - Don't Cha
TTITLE1=Gorillaz - Dare
TTITLE2=Tokio Hotel - Schrei
TTITLE3=Sean Paul - We Be Burnin
TTITLE4=Us5 - Just because of you(Single edit)
TTITLE5=Tatu - All About Us
TTITLE6=black eyed peas - my humps (radio edit)
TTITLE7=Madonna - Hung Up
TTITLE8=David Guetta feat. Jd Davis - The World Is Mine (Radio Edit))
TTITLE9=50 Cent feat. Olivia - Candy Shop
TTITLE10=50 cent - Just A Lil Bit (Produced By S
TTITLE11=Tokio Hotel - Durch Den Monsun
TTITLE12=Nightwish - Sleeping Sun
TTITLE13=Hillary Duff - Wake Up
TTITLE14=within temptation - Memorie
TTITLE15=Sarah Connor - From Zero to Hero (Single Version)
TTITLE16=GOOD CHARLOTTE - I JUST WANNA LIVE
TTITLE17=Ciara ft Missy Elliott - 1,2 Step
TTITLE18=Missy Elliott - Lose Control
TTITLE19=within temptation - Angels
EXTD=YEAR: 66
EXTT0=
EXTT1=
EXTT2=
EXTT3=
EXTT4=
EXTT5=
EXTT6=
EXTT7=
EXTT8=
EXTT9=
EXTT10=
EXTT11=
EXTT12=
EXTT13=
EXTT14=
EXTT15=
EXTT16=
EXTT17=
EXTT18=
EXTT19=
PLAYORDER=
